# 3ds Max Wavefront OBJ Exporter v0.97b - (c)2007 guruware
# File Created: 08.01.2019 17:06:18

mtllib fullMaze.mtl

#
# object floor
#

v  -24.7408 0.0000 11.9393
v  -24.7408 0.0000 24.4393
v  -12.2408 0.0000 11.9393
v  -12.2408 0.0000 24.4393
v  0.2592 0.0000 11.9393
v  0.2592 0.0000 24.4393
v  12.7592 0.0000 11.9393
v  12.7592 0.0000 24.4393
v  25.2592 0.0000 11.9393
v  25.2592 0.0000 24.4393
v  -24.7408 0.0000 -0.5607
v  -12.2408 0.0000 -0.5607
v  0.2592 0.0000 -0.5607
v  12.7592 0.0000 -0.5607
v  25.2592 0.0000 -0.5607
v  -24.7408 0.0000 -13.0607
v  -12.2408 0.0000 -13.0607
v  0.2592 0.0000 -13.0607
v  12.7592 0.0000 -13.0607
v  25.2592 0.0000 -13.0607
v  -24.7408 0.0000 -25.5607
v  -12.2408 0.0000 -25.5607
v  0.2592 0.0000 -25.5607
v  12.7592 0.0000 -25.5607
v  25.2592 0.0000 -25.5607
# 25 vertices

vn 0.0000 1.0000 -0.0000
# 1 vertex normals

vt 0.0000 0.2500 0.0000
vt 0.0000 0.0000 0.0000
vt 0.2500 0.2500 0.0000
vt 0.2500 0.0000 0.0000
vt 0.5000 0.2500 0.0000
vt 0.5000 0.0000 0.0000
vt 0.7500 0.2500 0.0000
vt 0.7500 0.0000 0.0000
vt 1.0000 0.2500 0.0000
vt 1.0000 0.0000 0.0000
vt 0.0000 0.5000 0.0000
vt 0.2500 0.5000 0.0000
vt 0.5000 0.5000 0.0000
vt 0.7500 0.5000 0.0000
vt 1.0000 0.5000 0.0000
vt 0.0000 0.7500 0.0000
vt 0.2500 0.7500 0.0000
vt 0.5000 0.7500 0.0000
vt 0.7500 0.7500 0.0000
vt 1.0000 0.7500 0.0000
vt 0.0000 1.0000 0.0000
vt 0.2500 1.0000 0.0000
vt 0.5000 1.0000 0.0000
vt 0.7500 1.0000 0.0000
vt 1.0000 1.0000 0.0000
# 25 texture coords

o floor
g floor
usemtl wire_213154229
s 1
f 1/1/1 2/2/1 3/3/1 
f 4/4/1 3/3/1 2/2/1 
f 3/3/1 4/4/1 5/5/1 
f 6/6/1 5/5/1 4/4/1 
f 5/5/1 6/6/1 7/7/1 
f 8/8/1 7/7/1 6/6/1 
f 7/7/1 8/8/1 9/9/1 
f 10/10/1 9/9/1 8/8/1 
f 11/11/1 1/1/1 12/12/1 
f 3/3/1 12/12/1 1/1/1 
f 12/12/1 3/3/1 13/13/1 
f 5/5/1 13/13/1 3/3/1 
f 13/13/1 5/5/1 14/14/1 
f 7/7/1 14/14/1 5/5/1 
f 14/14/1 7/7/1 15/15/1 
f 9/9/1 15/15/1 7/7/1 
f 16/16/1 11/11/1 17/17/1 
f 12/12/1 17/17/1 11/11/1 
f 17/17/1 12/12/1 18/18/1 
f 13/13/1 18/18/1 12/12/1 
f 18/18/1 13/13/1 19/19/1 
f 14/14/1 19/19/1 13/13/1 
f 19/19/1 14/14/1 20/20/1 
f 15/15/1 20/20/1 14/14/1 
f 21/21/1 16/16/1 22/22/1 
f 17/17/1 22/22/1 16/16/1 
f 22/22/1 17/17/1 23/23/1 
f 18/18/1 23/23/1 17/17/1 
f 23/23/1 18/18/1 24/24/1 
f 19/19/1 24/24/1 18/18/1 
f 24/24/1 19/19/1 25/25/1 
f 20/20/1 25/25/1 19/19/1 
# 32 faces

#
# object wallWest
#

v  -24.7566 0.0000 24.2556
v  -24.7566 0.0000 -20.7444
v  -19.7566 0.0000 -20.7444
v  -19.7566 0.0000 24.2556
v  -24.7566 10.0000 24.2556
v  -19.7566 10.0000 24.2556
v  -19.7566 10.0000 -20.7444
v  -24.7566 10.0000 -20.7444
# 8 vertices

vn 0.0000 -1.0000 -0.0000
vn 0.0000 1.0000 -0.0000
vn 0.0000 0.0000 1.0000
vn 1.0000 0.0000 -0.0000
vn 0.0000 0.0000 -1.0000
vn -1.0000 0.0000 -0.0000
# 6 vertex normals

vt 1.0000 0.0000 0.0000
vt 1.0000 1.0000 0.0000
vt 0.0000 1.0000 0.0000
vt 0.0000 0.0000 0.0000
# 4 texture coords

o wallWest
g wallWest
usemtl wire_228214153
s 2
f 26/26/2 27/27/2 28/28/2 
f 28/28/2 29/29/2 26/26/2 
s 4
f 30/29/3 31/26/3 32/27/3 
f 32/27/3 33/28/3 30/29/3 
s 8
f 26/29/4 29/26/4 31/27/4 
f 31/27/4 30/28/4 26/29/4 
s 16
f 29/29/5 28/26/5 32/27/5 
f 32/27/5 31/28/5 29/29/5 
s 32
f 28/29/6 27/26/6 33/27/6 
f 33/27/6 32/28/6 28/29/6 
s 64
f 27/29/7 26/26/7 30/27/7 
f 30/27/7 33/28/7 27/29/7 
# 12 faces

#
# object wallEast
#

v  20.1817 0.0000 24.2624
v  20.1817 0.0000 -25.7376
v  25.1817 0.0000 -25.7376
v  25.1817 0.0000 24.2624
v  20.1817 10.0000 24.2624
v  25.1817 10.0000 24.2624
v  25.1817 10.0000 -25.7376
v  20.1817 10.0000 -25.7376
# 8 vertices

vn 0.0000 -1.0000 -0.0000
vn 0.0000 1.0000 -0.0000
vn 0.0000 0.0000 1.0000
vn 1.0000 0.0000 -0.0000
vn 0.0000 0.0000 -1.0000
vn -1.0000 0.0000 -0.0000
# 6 vertex normals

vt 1.0000 0.0000 0.0000
vt 1.0000 1.0000 0.0000
vt 0.0000 1.0000 0.0000
vt 0.0000 0.0000 0.0000
# 4 texture coords

o wallEast
g wallEast
usemtl wire_166229229
s 2
f 34/30/8 35/31/8 36/32/8 
f 36/32/8 37/33/8 34/30/8 
s 4
f 38/33/9 39/30/9 40/31/9 
f 40/31/9 41/32/9 38/33/9 
s 8
f 34/33/10 37/30/10 39/31/10 
f 39/31/10 38/32/10 34/33/10 
s 16
f 37/33/11 36/30/11 40/31/11 
f 40/31/11 39/32/11 37/33/11 
s 32
f 36/33/12 35/30/12 41/31/12 
f 41/31/12 40/32/12 36/33/12 
s 64
f 35/33/13 34/30/13 38/31/13 
f 38/31/13 41/32/13 35/33/13 
# 12 faces

#
# object wallNorth
#

v  -24.7999 0.0000 -20.4963
v  -24.7999 0.0000 -25.4963
v  15.2001 0.0000 -25.4963
v  15.2001 0.0000 -20.4963
v  -24.7999 10.0000 -20.4963
v  15.2001 10.0000 -20.4963
v  15.2001 10.0000 -25.4963
v  -24.7999 10.0000 -25.4963
# 8 vertices

vn 0.0000 -1.0000 -0.0000
vn 0.0000 1.0000 -0.0000
vn 0.0000 0.0000 1.0000
vn 1.0000 0.0000 -0.0000
vn 0.0000 0.0000 -1.0000
vn -1.0000 0.0000 -0.0000
# 6 vertex normals

vt 1.0000 0.0000 0.0000
vt 1.0000 1.0000 0.0000
vt 0.0000 1.0000 0.0000
vt 0.0000 0.0000 0.0000
# 4 texture coords

o wallNorth
g wallNorth
usemtl wire_154215229
s 2
f 42/34/14 43/35/14 44/36/14 
f 44/36/14 45/37/14 42/34/14 
s 4
f 46/37/15 47/34/15 48/35/15 
f 48/35/15 49/36/15 46/37/15 
s 8
f 42/37/16 45/34/16 47/35/16 
f 47/35/16 46/36/16 42/37/16 
s 16
f 45/37/17 44/34/17 48/35/17 
f 48/35/17 47/36/17 45/37/17 
s 32
f 44/37/18 43/34/18 49/35/18 
f 49/35/18 48/36/18 44/37/18 
s 64
f 43/37/19 42/34/19 46/35/19 
f 46/35/19 49/36/19 43/37/19 
# 12 faces

#
# object wallSouth
#

v  -14.8965 0.0000 24.2875
v  -14.8965 0.0000 19.2875
v  20.1035 0.0000 19.2875
v  20.1035 0.0000 24.2875
v  -14.8965 10.0000 24.2875
v  20.1035 10.0000 24.2875
v  20.1035 10.0000 19.2875
v  -14.8965 10.0000 19.2875
# 8 vertices

vn 0.0000 -1.0000 -0.0000
vn 0.0000 1.0000 -0.0000
vn 0.0000 0.0000 1.0000
vn 1.0000 0.0000 -0.0000
vn 0.0000 0.0000 -1.0000
vn -1.0000 0.0000 -0.0000
# 6 vertex normals

vt 1.0000 0.0000 0.0000
vt 1.0000 1.0000 0.0000
vt 0.0000 1.0000 0.0000
vt 0.0000 0.0000 0.0000
# 4 texture coords

o wallSouth
g wallSouth
usemtl wire_153228153
s 2
f 50/38/20 51/39/20 52/40/20 
f 52/40/20 53/41/20 50/38/20 
s 4
f 54/41/21 55/38/21 56/39/21 
f 56/39/21 57/40/21 54/41/21 
s 8
f 50/41/22 53/38/22 55/39/22 
f 55/39/22 54/40/22 50/41/22 
s 16
f 53/41/23 52/38/23 56/39/23 
f 56/39/23 55/40/23 53/41/23 
s 32
f 52/41/24 51/38/24 57/39/24 
f 57/39/24 56/40/24 52/41/24 
s 64
f 51/41/25 50/38/25 54/39/25 
f 54/39/25 57/40/25 51/41/25 
# 12 faces

#
# object wallInner1
#

v  10.2800 0.0000 14.7781
v  10.2800 0.0000 -20.2219
v  15.2800 0.0000 -20.2219
v  15.2800 0.0000 14.7781
v  10.2800 10.0000 14.7781
v  15.2800 10.0000 14.7781
v  15.2800 10.0000 -20.2219
v  10.2800 10.0000 -20.2219
# 8 vertices

vn 0.0000 -1.0000 -0.0000
vn 0.0000 1.0000 -0.0000
vn 0.0000 0.0000 1.0000
vn 1.0000 0.0000 -0.0000
vn 0.0000 0.0000 -1.0000
vn -1.0000 0.0000 -0.0000
# 6 vertex normals

vt 1.0000 0.0000 0.0000
vt 1.0000 1.0000 0.0000
vt 0.0000 1.0000 0.0000
vt 0.0000 0.0000 0.0000
# 4 texture coords

o wallInner1
g wallInner1
usemtl wire_087225087
s 2
f 58/42/26 59/43/26 60/44/26 
f 60/44/26 61/45/26 58/42/26 
s 4
f 62/45/27 63/42/27 64/43/27 
f 64/43/27 65/44/27 62/45/27 
s 8
f 58/45/28 61/42/28 63/43/28 
f 63/43/28 62/44/28 58/45/28 
s 16
f 61/45/29 60/42/29 64/43/29 
f 64/43/29 63/44/29 61/45/29 
s 32
f 60/45/30 59/42/30 65/43/30 
f 65/43/30 64/44/30 60/45/30 
s 64
f 59/45/31 58/42/31 62/43/31 
f 62/43/31 65/44/31 59/45/31 
# 12 faces

#
# object wallInner2
#

v  -9.9604 0.0000 14.7313
v  -9.9604 0.0000 9.7313
v  10.0396 0.0000 9.7313
v  10.0396 0.0000 14.7313
v  -9.9604 10.0000 14.7313
v  10.0396 10.0000 14.7313
v  10.0396 10.0000 9.7313
v  -9.9604 10.0000 9.7313
# 8 vertices

vn 0.0000 -1.0000 -0.0000
vn 0.0000 1.0000 -0.0000
vn 0.0000 0.0000 1.0000
vn 1.0000 0.0000 -0.0000
vn 0.0000 0.0000 -1.0000
vn -1.0000 0.0000 -0.0000
# 6 vertex normals

vt 1.0000 0.0000 0.0000
vt 1.0000 1.0000 0.0000
vt 0.0000 1.0000 0.0000
vt 0.0000 0.0000 0.0000
# 4 texture coords

o wallInner2
g wallInner2
usemtl wire_140088225
s 2
f 66/46/32 67/47/32 68/48/32 
f 68/48/32 69/49/32 66/46/32 
s 4
f 70/49/33 71/46/33 72/47/33 
f 72/47/33 73/48/33 70/49/33 
s 8
f 66/49/34 69/46/34 71/47/34 
f 71/47/34 70/48/34 66/49/34 
s 16
f 69/49/35 68/46/35 72/47/35 
f 72/47/35 71/48/35 69/49/35 
s 32
f 68/49/36 67/46/36 73/47/36 
f 73/47/36 72/48/36 68/49/36 
s 64
f 67/49/37 66/46/37 70/47/37 
f 70/47/37 73/48/37 67/49/37 
# 12 faces

#
# object WallInner3
#

v  -9.8366 0.0000 9.6095
v  -9.8366 0.0000 -10.3905
v  -4.8366 0.0000 -10.3905
v  -4.8366 0.0000 9.6095
v  -9.8366 10.0000 9.6095
v  -4.8366 10.0000 9.6095
v  -4.8366 10.0000 -10.3905
v  -9.8366 10.0000 -10.3905
# 8 vertices

vn 0.0000 -1.0000 -0.0000
vn 0.0000 1.0000 -0.0000
vn 0.0000 0.0000 1.0000
vn 1.0000 0.0000 -0.0000
vn 0.0000 0.0000 -1.0000
vn -1.0000 0.0000 -0.0000
# 6 vertex normals

vt 1.0000 0.0000 0.0000
vt 1.0000 1.0000 0.0000
vt 0.0000 1.0000 0.0000
vt 0.0000 0.0000 0.0000
# 4 texture coords

o WallInner3
g WallInner3
usemtl wire_027177148
s 2
f 74/50/38 75/51/38 76/52/38 
f 76/52/38 77/53/38 74/50/38 
s 4
f 78/53/39 79/50/39 80/51/39 
f 80/51/39 81/52/39 78/53/39 
s 8
f 74/53/40 77/50/40 79/51/40 
f 79/51/40 78/52/40 74/53/40 
s 16
f 77/53/41 76/50/41 80/51/41 
f 80/51/41 79/52/41 77/53/41 
s 32
f 76/53/42 75/50/42 81/51/42 
f 81/51/42 80/52/42 76/53/42 
s 64
f 75/53/43 74/50/43 78/51/43 
f 78/51/43 81/52/43 75/53/43 
# 12 faces

#
# object WallInner4
#

v  -9.9436 0.0000 -10.4229
v  -9.9436 0.0000 -15.4229
v  0.0564 0.0000 -15.4229
v  0.0564 0.0000 -10.4229
v  -9.9436 10.0000 -10.4229
v  0.0564 10.0000 -10.4229
v  0.0564 10.0000 -15.4229
v  -9.9436 10.0000 -15.4229
# 8 vertices

vn 0.0000 -1.0000 -0.0000
vn 0.0000 1.0000 -0.0000
vn 0.0000 0.0000 1.0000
vn 1.0000 0.0000 -0.0000
vn 0.0000 0.0000 -1.0000
vn -1.0000 0.0000 -0.0000
# 6 vertex normals

vt 1.0000 0.0000 0.0000
vt 1.0000 1.0000 0.0000
vt 0.0000 1.0000 0.0000
vt 0.0000 0.0000 0.0000
# 4 texture coords

o WallInner4
g WallInner4
usemtl wire_135110008
s 2
f 82/54/44 83/55/44 84/56/44 
f 84/56/44 85/57/44 82/54/44 
s 4
f 86/57/45 87/54/45 88/55/45 
f 88/55/45 89/56/45 86/57/45 
s 8
f 82/57/46 85/54/46 87/55/46 
f 87/55/46 86/56/46 82/57/46 
s 16
f 85/57/47 84/54/47 88/55/47 
f 88/55/47 87/56/47 85/57/47 
s 32
f 84/57/48 83/54/48 89/55/48 
f 89/55/48 88/56/48 84/57/48 
s 64
f 83/57/49 82/54/49 86/55/49 
f 86/55/49 89/56/49 83/57/49 
# 12 faces

#
# object wallInner5
#

v  0.3425 0.0000 4.5417
v  0.3425 0.0000 -15.4583
v  5.3425 0.0000 -15.4583
v  5.3425 0.0000 4.5417
v  0.3425 10.0000 4.5417
v  5.3425 10.0000 4.5417
v  5.3425 10.0000 -15.4583
v  0.3425 10.0000 -15.4583
# 8 vertices

vn 0.0000 -1.0000 -0.0000
vn 0.0000 1.0000 -0.0000
vn 0.0000 0.0000 1.0000
vn 1.0000 0.0000 -0.0000
vn 0.0000 0.0000 -1.0000
vn -1.0000 0.0000 -0.0000
# 6 vertex normals

vt 1.0000 0.0000 0.0000
vt 1.0000 1.0000 0.0000
vt 0.0000 1.0000 0.0000
vt 0.0000 0.0000 0.0000
# 4 texture coords

o wallInner5
g wallInner5
usemtl wire_213154229
s 2
f 90/58/50 91/59/50 92/60/50 
f 92/60/50 93/61/50 90/58/50 
s 4
f 94/61/51 95/58/51 96/59/51 
f 96/59/51 97/60/51 94/61/51 
s 8
f 90/61/52 93/58/52 95/59/52 
f 95/59/52 94/60/52 90/61/52 
s 16
f 93/61/53 92/58/53 96/59/53 
f 96/59/53 95/60/53 93/61/53 
s 32
f 92/61/54 91/58/54 97/59/54 
f 97/59/54 96/60/54 92/61/54 
s 64
f 91/61/55 90/58/55 94/59/55 
f 94/59/55 97/60/55 91/61/55 
# 12 faces

